<svg width="309" height="90" viewBox="0 0 309 90" fill="none" xmlns="http://www.w3.org/2000/svg">
<path d="M55 5C78.2622 5 95 21.7378 95 45C95 68.2622 78.2622 85 55 85C31.7378 85 15 68.2622 15 45C15 21.7378 31.7378 5 55 5ZM55 0C30.1459 0 10 20.1459 10 45C10 69.8541 30.1459 90 55 90C79.8541 90 100 69.8541 100 45C100 20.1459 79.8541 0 55 0Z" fill="#FF6481"/>
<path d="M54.9128 19.9769L67.5 33L80.0987 45.1628L67.5 58.5L54.9128 70.3487L42 57.5L29.7269 45.1628L44 30.5L54.9128 19.9769ZM54.9128 16L25.75 45.1628L54.9128 74.3256L84.0756 45.1628L54.9128 16Z" fill="#FF6481"/>
<path d="M55.2137 34.9769L64.9506 44.7138L55.2137 54.4506L45.4769 44.7138L55.2137 34.9769ZM55.2137 31L41.5 44.7138L55.2137 58.4275L68.9275 44.7138L55.2137 31Z" fill="#FF6481"/>
<path d="M209.418 63C209.418 67.4 208.338 71.44 206.178 75.12C204.018 78.72 201.138 81.6 197.538 83.76C193.938 85.92 189.898 87 185.418 87H112.458V75H185.418C188.778 75 191.618 73.84 193.938 71.52C196.258 69.12 197.418 66.28 197.418 63C197.418 59.72 196.258 56.92 193.938 54.6C191.618 52.2 188.778 51 185.418 51H136.458C132.058 51 128.018 49.92 124.338 47.76C120.738 45.6 117.858 42.72 115.698 39.12C113.538 35.44 112.458 31.4 112.458 27C112.458 22.6 113.538 18.6 115.698 15C117.858 11.32 120.738 8.4 124.338 6.24C128.018 4.07999 132.058 2.99999 136.458 2.99999H203.418V15H136.458C133.178 15 130.338 16.2 127.938 18.6C125.618 20.92 124.458 23.72 124.458 27C124.458 30.28 125.618 33.12 127.938 35.52C130.338 37.84 133.178 39 136.458 39H185.418C189.898 39 193.938 40.08 197.538 42.24C201.138 44.4 204.018 47.32 206.178 51C208.338 54.6 209.418 58.6 209.418 63ZM211.416 87H199.416V2.99999H205.416C211.256 2.99999 217.576 4.11999 224.376 6.35999C231.256 8.59999 238.136 11.76 245.016 15.84C251.896 19.92 258.376 24.8 264.456 30.48C270.616 36.08 275.896 42.32 280.296 49.2V2.99999H292.296V87H280.296C280.296 79.64 278.776 72.6 275.736 65.88C272.776 59.08 268.816 52.84 263.856 47.16C258.896 41.4 253.376 36.32 247.296 31.92C241.296 27.44 235.176 23.8 228.936 21C222.696 18.12 216.856 16.28 211.416 15.48V87Z" fill="#FF6481"/>
</svg>
