<svg width="309" height="91" viewBox="0 0 309 91" fill="none" xmlns="http://www.w3.org/2000/svg">
<path d="M209.418 63C209.418 67.4 208.338 71.44 206.178 75.12C204.018 78.72 201.138 81.6 197.538 83.76C193.938 85.92 189.898 87 185.418 87H112.458V75H185.418C188.778 75 191.618 73.84 193.938 71.52C196.258 69.12 197.418 66.28 197.418 63C197.418 59.72 196.258 56.92 193.938 54.6C191.618 52.2 188.778 51 185.418 51H136.458C132.058 51 128.018 49.92 124.338 47.76C120.738 45.6 117.858 42.72 115.698 39.12C113.538 35.44 112.458 31.4 112.458 27C112.458 22.6 113.538 18.6 115.698 15C117.858 11.32 120.738 8.4 124.338 6.24C128.018 4.07999 132.058 2.99999 136.458 2.99999H203.418V15H136.458C133.178 15 130.338 16.2 127.938 18.6C125.618 20.92 124.458 23.72 124.458 27C124.458 30.28 125.618 33.12 127.938 35.52C130.338 37.84 133.178 39 136.458 39H185.418C189.898 39 193.938 40.08 197.538 42.24C201.138 44.4 204.018 47.32 206.178 51C208.338 54.6 209.418 58.6 209.418 63ZM211.416 87H199.416V2.99999H205.416C211.256 2.99999 217.576 4.11999 224.376 6.35999C231.256 8.59999 238.136 11.76 245.016 15.84C251.896 19.92 258.376 24.8 264.456 30.48C270.616 36.08 275.896 42.32 280.296 49.2V2.99999H292.296V87H280.296C280.296 79.64 278.776 72.6 275.736 65.88C272.776 59.08 268.816 52.84 263.856 47.16C258.896 41.4 253.376 36.32 247.296 31.92C241.296 27.44 235.176 23.8 228.936 21C222.696 18.12 216.856 16.28 211.416 15.48V87Z" fill="#FF6481"/>
<path fill-rule="evenodd" clip-rule="evenodd" d="M21.9907 17.5482C24.8149 7.42604 34.1034 0 45.1264 0H48.1692L48.1414 9.31864C57.2959 4.15818 69.1147 5.47513 76.9093 13.2696L79.0607 15.4211L72.4518 21.9907C82.574 24.8149 90 34.1034 90 45.1264V48.1692L80.6815 48.1414C85.8418 57.2959 84.5249 69.1147 76.7303 76.9093L74.5789 79.0607L68.0092 72.4518C65.185 82.574 55.8966 90 44.8736 90H41.8308L41.8586 80.6815C32.7041 85.8418 20.8852 84.5249 13.0908 76.7303L10.9392 74.5789L17.5482 68.0092C7.42604 65.185 0 55.8966 0 44.8736V41.8308L9.31864 41.8586C4.15818 32.7041 5.47513 20.8852 13.2696 13.0908L15.4211 10.9392L21.9907 17.5482ZM21.1434 25.3021L15.5895 19.715C10.627 26.7219 11.2838 36.4894 17.5599 42.7654C22.8461 48.0517 30.6094 49.3513 37.1136 46.6645C28.1738 43.5016 21.665 35.1953 21.1434 25.3021ZM46.6645 52.8864C43.5016 61.8262 35.1953 68.335 25.3021 68.8566L19.715 74.4105C26.7219 79.3729 36.4894 78.7161 42.7654 72.4401C48.0517 67.1539 49.3513 59.3906 46.6645 52.8864ZM52.8864 43.3355C61.8262 46.4984 68.335 54.8047 68.8566 64.6979L74.4105 70.2849C79.3729 63.2781 78.7161 53.5106 72.4401 47.2346C67.1539 41.9483 59.3906 40.6487 52.8864 43.3355ZM43.3355 37.1136C46.4984 28.1738 54.8047 21.665 64.6979 21.1434L70.2849 15.5895C63.2781 10.627 53.5106 11.2838 47.2346 17.5599C41.9483 22.8461 40.6487 30.6094 43.3355 37.1136Z" fill="#FF6481"/>
</svg>
