<svg width="120" height="120" viewBox="0 0 120 120" fill="none" xmlns="http://www.w3.org/2000/svg">
<rect width="120" height="120" rx="60" fill="white"/>
<path d="M63.2967 15.3488C64.8306 16.0443 65.8174 16.973 66.9896 18.2206C67.3679 18.621 67.7462 19.0213 68.1359 19.4338C68.5403 19.8665 68.9446 20.2991 69.3613 20.7449C69.7823 21.1922 70.2036 21.6393 70.625 22.0861C71.7311 23.2601 72.8346 24.4369 73.9375 25.6142C75.0644 26.8162 76.1939 28.0155 77.3231 29.2151C79.5366 31.5672 81.7472 33.9222 83.956 36.2791C83.5444 36.7923 83.1321 37.3049 82.7196 37.8172C82.49 38.1027 82.2605 38.3882 82.024 38.6823C80.9802 39.944 79.8662 41.122 78.7363 42.2965C78.5175 42.5259 78.2988 42.7552 78.0735 42.9915C77.5445 43.5458 77.0142 44.0987 76.4835 44.6512C73.9705 42.4412 71.6585 40.0716 69.3561 37.6199C68.98 37.2212 68.6038 36.8226 68.2163 36.4118C67.0241 35.1477 65.8334 33.882 64.6429 32.6163C63.8311 31.755 63.0192 30.8938 62.2072 30.0327C60.2249 27.93 58.2438 25.826 56.2637 23.7209C56.898 22.319 57.5235 21.3467 58.5749 20.2544C58.8497 19.9666 59.1245 19.6788 59.4076 19.3823C59.6938 19.0873 59.9799 18.7923 60.2747 18.4884C60.5643 18.1862 60.8538 17.884 61.1521 17.5727C61.865 16.8293 62.5799 16.0881 63.2967 15.3488Z" fill="#FF6481"/>
<path d="M23.2967 26.0465C25.041 26.9694 26.1584 28.0163 27.5025 29.4547C27.7445 29.71 27.9865 29.9653 28.2359 30.2284C29.0465 31.0846 29.854 31.9441 30.6615 32.8036C31.2418 33.418 31.8224 34.0322 32.4032 34.6462C33.9798 36.3142 35.5536 37.985 37.1271 39.6564C38.7716 41.4024 40.4187 43.1457 42.0654 44.8894C45.1838 48.1919 48.2998 51.4967 51.4151 54.8025C54.9617 58.5657 58.5108 62.3262 62.0601 66.0866C69.3615 73.8222 76.6598 81.5612 83.956 89.3023C83.5444 89.8155 83.1321 90.3281 82.7196 90.8404C82.49 91.1259 82.2605 91.4114 82.024 91.7056C80.9802 92.9672 79.8662 94.1452 78.7363 95.3198C78.5175 95.5491 78.2988 95.7784 78.0735 96.0147C77.5445 96.569 77.0142 97.1219 76.4835 97.6744C74.0283 95.5112 71.7598 93.2047 69.5065 90.8096C69.1287 90.41 68.751 90.0104 68.3618 89.5987C67.335 88.5119 66.3091 87.424 65.2837 86.3358C64.2086 85.1952 63.1323 84.056 62.056 82.9167C60.0221 80.7631 57.9894 78.6083 55.957 76.4531C53.414 73.7566 50.8695 71.0616 48.325 68.3666C43.7903 63.5638 39.2579 58.7585 34.7253 53.9535C34.5802 69.3023 34.4352 84.6512 34.2857 100.465C30.6593 100.465 27.033 100.465 23.2967 100.465C23.2967 75.907 23.2967 51.3488 23.2967 26.0465Z" fill="#FF6481"/>
<path d="M93.1868 25.5814C96.8132 25.5814 100.44 25.5814 104.176 25.5814C104.176 50.1395 104.176 74.6977 104.176 100C102.431 99.0771 101.314 98.0302 99.97 96.5918C99.728 96.3365 99.486 96.0812 99.2366 95.8181C98.426 94.9619 97.6185 94.1024 96.811 93.2429C96.2307 92.6285 95.6501 92.0143 95.0694 91.4003C93.4928 89.7323 91.9189 88.0615 90.3455 86.3901C88.7009 84.6441 87.0539 82.9008 85.4071 81.1571C82.2888 77.8546 79.1727 74.5498 76.0574 71.244C72.5108 67.4808 68.9617 63.7203 65.4124 59.9599C58.111 52.2243 50.8127 44.4853 43.5165 36.7442C43.9281 36.231 44.3404 35.7184 44.753 35.2061C44.9825 34.9206 45.212 34.6351 45.4485 34.3409C46.4923 33.0793 47.6063 31.9013 48.7363 30.7267C49.0643 30.3827 49.0643 30.3827 49.399 30.0318C49.928 29.4775 50.4583 28.9246 50.989 28.3721C53.4442 30.5353 55.7128 32.8418 57.9661 35.2369C58.3438 35.6365 58.7215 36.0361 59.1107 36.4478C60.1375 37.5346 61.1634 38.6225 62.1888 39.7107C63.2639 40.8513 64.3403 41.9905 65.4165 43.1298C67.4504 45.2834 69.4832 47.4382 71.5155 49.5934C74.0585 52.2899 76.603 54.9849 79.1475 57.6799C83.6822 62.4827 88.2146 67.288 92.7473 72.093C92.8923 56.7442 93.0374 41.3953 93.1868 25.5814Z" fill="#FF6481"/>
<path d="M50.989 81.3954C53.502 83.6053 55.814 85.975 58.1164 88.4266C58.4926 88.8253 58.8687 89.224 59.2563 89.6347C60.4484 90.8988 61.6391 92.1645 62.8297 93.4302C63.6414 94.2915 64.4533 95.1527 65.2653 96.0138C67.2476 98.1165 69.2287 100.221 71.2088 102.326C70.5745 103.727 69.949 104.7 68.8977 105.792C68.6228 106.08 68.348 106.368 68.0649 106.664C67.7788 106.959 67.4926 107.254 67.1978 107.558C66.9083 107.86 66.6187 108.163 66.3204 108.474C65.6075 109.217 64.8926 109.958 64.1758 110.698C62.6419 110.002 61.6551 109.074 60.4829 107.826C60.1046 107.426 59.7263 107.025 59.3366 106.613C58.9322 106.18 58.5279 105.747 58.1113 105.302C57.6902 104.854 57.2689 104.407 56.8475 103.96C55.7414 102.786 54.6379 101.61 53.535 100.432C52.4081 99.2303 51.2786 98.031 50.1494 96.8314C47.936 94.4793 45.7253 92.1243 43.5165 89.7674C43.9281 89.2542 44.3404 88.7417 44.753 88.2294C44.9825 87.9439 45.212 87.6583 45.4485 87.3642C46.4923 86.1026 47.6063 84.9245 48.7363 83.75C48.955 83.5207 49.1737 83.2913 49.399 83.0551C49.928 82.5007 50.4583 81.9479 50.989 81.3954Z" fill="#FF6481"/>
</svg>
